<svg id="Capa_1" enable-background="new 0 0 512.023 512.023" height="512" viewBox="0 0 512.023 512.023" width="512" xmlns="http://www.w3.org/2000/svg"><g><path d="m501.94 224.816c8.753-8.533 12.02-18.825 8.962-28.236-3.058-9.412-11.75-15.819-23.849-17.579l-127.029-18.455c-8.211-1.193-19.447-9.356-23.12-16.797l-56.805-115.106c-5.408-10.966-14.188-17.256-24.087-17.256s-18.679 6.289-24.087 17.252l-56.806 115.107c-3.674 7.441-14.911 15.605-23.122 16.799l-127.03 18.455c-12.097 1.76-20.789 8.167-23.846 17.579-3.057 9.411.209 19.703 8.963 28.236l91.914 89.596c5.943 5.795 10.236 19.007 8.833 27.185l-21.698 126.509c-2.126 12.396 1.729 20.101 5.338 24.381 4.431 5.256 10.83 8.15 18.019 8.15 5.041 0 10.295-1.42 15.617-4.218l113.609-59.727c3.444-1.81 8.789-2.89 14.297-2.89 5.507 0 10.851 1.08 14.29 2.888l113.615 59.727c5.323 2.8 10.577 4.22 15.618 4.22 7.188 0 13.587-2.895 18.018-8.15 3.609-4.28 7.464-11.984 5.338-24.38l-21.697-126.511c-1.403-8.178 2.89-21.389 8.831-27.182zm-112.858 68.116c-13.028 12.703-20.532 35.804-17.457 53.734l20.621 120.236-107.987-56.77c-7.771-4.082-17.803-6.331-28.247-6.331-10.445 0-20.477 2.249-28.252 6.333l-107.982 56.769 20.622-120.236c3.075-17.93-4.429-41.03-17.459-53.736l-87.361-85.157 120.731-17.541c18.003-2.616 37.654-16.891 45.71-33.208l53.99-109.402 53.993 109.403c8.053 16.315 27.703 30.592 45.708 33.207l120.733 17.541z"/><path d="m280.431 176.904c-2.599 0-5.23.394-7.816 1.171l-74.46 22.338c-13.374 4.014-23.46 17.569-23.46 31.533v33.332c0 14.274 10.431 25.04 24.264 25.04h.002c2.599 0 5.23-.395 7.814-1.17l7.92-2.375v68.505c0 15.623 12.71 28.334 28.334 28.334h33.332c15.624 0 28.334-12.711 28.334-28.334v-153.334c-.001-14.276-10.432-25.04-24.264-25.04zm-5.737 176.708h-30v-73.666c0-14.275-10.431-25.04-24.264-25.04-2.599 0-5.23.395-7.814 1.17l-7.922 2.376-.001-26.462c.079-.874 1.311-2.53 2.083-2.843l67.918-20.376z"/></g></svg>