<svg id="Capa_1" enable-background="new 0 0 512.006 512.006" height="512" viewBox="0 0 512.006 512.006" width="512" xmlns="http://www.w3.org/2000/svg"><g><g><path d="m392.473 375.257h.01z" fill="#59c36a"/></g><g><path d="m119.483 375.257h.01z" fill="#97de3d"/></g><g id="_First_1_"><g><path d="m331 375.005h-150c-8.291 0-15-6.709-15-15v-60c0-8.291 6.709-15 15-15h30v-45h-30c-8.291 0-15-6.709-15-15v-60c0-8.291 6.709-15 15-15 12.715 0 24.082-8.042 28.301-19.995 2.139-6.006 7.793-10.005 14.15-10.005h62.549c8.291 0 15 6.709 15 15v150h30c8.291 0 15 6.709 15 15v60c0 8.291-6.709 15-15 15z" fill="#ffe666"/></g></g><path d="m256.011 375.005h74.989c8.291 0 15-6.709 15-15v-60c0-8.291-6.709-15-15-15h-30v-150c0-8.291-6.709-15-15-15h-29.989z" fill="#fabe2c"/></g><g><path d="m500.83 293.878c-1.406-.371-26.778-6.878-53.521-1.652 2.36-11.484 3.661-23.042 3.921-34.556 15.026-6.614 40.734-20.983 52.864-45.675 17.366-35.353.69-77.534-.028-79.313-2.922-7.235-10.905-11.021-18.356-8.708-1.69.525-37.239 11.835-57.314 38.869-5.818-10.811-12.724-21.197-20.702-31.018 6.322-14.38 15.204-41.622 6.88-68.089-11.817-37.573-52.989-56.605-54.736-57.397-6.963-3.156-15.187-.57-19.09 6.004-.979 1.649-23.845 40.822-12.028 78.395 10.446 33.213 43.823 51.935 52.637 56.381 91.54 106.661 15.249 272.261-125.354 272.261-140.992 0-217.606-166.455-124.48-273.269 10.749-5.596 41.272-23.858 51.35-55.219 12.05-37.499-10.571-76.813-11.54-78.468-3.862-6.599-12.07-9.236-19.053-6.123-1.752.781-43.041 19.556-55.092 57.055-8.635 26.872.533 54.672 6.781 68.882-7.821 9.665-14.651 19.901-20.434 30.59-20.233-26.923-56.053-36.851-57.757-37.31-7.319-1.971-14.959 1.829-17.804 8.854-.72 1.778-17.428 43.946-.09 79.313 12.081 24.642 37.607 38.211 52.797 44.396.296 11.532 1.632 23.046 3.98 34.41-26.66-5.329-51.989 1-53.395 1.362-7.801 2.007-12.625 9.817-10.926 17.691.418 1.938 10.632 47.715 44.184 67.93 14.663 8.834 31.157 11.372 45.276 11.372 9.719 0 18.31-1.203 24.4-2.383 6.867 7.348 14.256 14.109 22.105 20.238-7.042 2.159-14.055 5.291-20.601 9.749-32.556 22.17-38.879 67.084-39.132 68.986-1.01 7.579 3.843 14.704 11.265 16.541.919.228 12.133 2.918 27.171 2.918 15.424 0 34.871-2.831 51.355-14.057 19.881-13.539 29.978-35.559 34.885-51.086 17.422 4.999 35.799 7.63 54.754 7.63 18.694 0 36.826-2.562 54.033-7.432 4.978 15.51 15.342 38.022 35.78 51.593 16.092 10.685 34.871 13.463 50.049 13.463 15.772 0 27.657-3 28.603-3.245 7.4-1.924 12.168-9.106 11.07-16.672-.275-1.898-7.125-46.736-39.938-68.523-6.534-4.338-13.51-7.37-20.509-9.444 8.194-6.355 15.892-13.396 23.021-21.074 6.273 1.245 14.79 2.447 24.362 2.447 13.925 0 30.047-2.543 44.608-11.193 33.683-20.011 44.14-65.741 44.568-67.677 1.739-7.862-3.036-15.693-10.819-17.747z" fill="#97de3d"/></g><path d="m345.815 493.542c16.092 10.685 34.871 13.463 50.049 13.463 15.772 0 27.657-3 28.603-3.245 7.4-1.924 12.168-9.106 11.07-16.672-.275-1.898-7.125-46.736-39.938-68.523-6.534-4.338-13.51-7.37-20.509-9.444 8.194-6.355 15.892-13.396 23.021-21.074 6.273 1.245 14.79 2.447 24.362 2.447 13.925 0 30.047-2.543 44.608-11.193 33.683-20.011 44.14-65.741 44.568-67.677 1.739-7.86-3.035-15.691-10.818-17.745-1.406-.371-26.778-6.878-53.521-1.652 2.36-11.484 3.661-23.042 3.921-34.556 15.026-6.614 40.734-20.983 52.864-45.675 17.366-35.353.69-77.534-.028-79.313-2.922-7.235-10.905-11.021-18.356-8.708-1.69.525-37.239 11.835-57.314 38.869-5.818-10.811-12.724-21.197-20.702-31.018 6.322-14.38 15.204-41.622 6.88-68.089-11.817-37.573-52.989-56.605-54.736-57.397-6.963-3.156-15.187-.57-19.09 6.004-.979 1.649-23.845 40.822-12.028 78.395 10.446 33.213 43.823 51.935 52.637 56.381 91.54 106.661 15.249 272.261-125.354 272.261v30c18.694 0 36.825-2.562 54.032-7.432 4.977 15.51 15.341 38.022 35.779 51.593z" fill="#59c36a"/></svg>